<svg xmlns="http://www.w3.org/2000/svg" width="1200" height="630" viewBox="0 0 1200 630">
  <defs>
    <linearGradient id="bg" x1="0" y1="0" x2="1" y2="1">
      <stop offset="0" stop-color="#ffffff"/>
      <stop offset="0.55" stop-color="#eef2ff"/>
      <stop offset="1" stop-color="#ecfeff"/>
    </linearGradient>
    <pattern id="grid" width="40" height="40" patternUnits="userSpaceOnUse">
      <path d="M40 0H0V40" fill="none" stroke="#e5e7eb" stroke-width="1"/>
    </pattern>
  </defs>
  <rect width="1200" height="630" fill="url(#bg)"/>
  <rect width="1200" height="630" fill="url(#grid)" opacity="0.7"/>
  <g transform="translate(74 68)">
    <rect width="64" height="64" rx="16" fill="#4f46e5"/>
    <path d="M18 18h20l8 8v20H18z" fill="none" stroke="#fff" stroke-width="4" stroke-linejoin="round"/>
    <path d="M38 18v9h8" fill="none" stroke="#67e8f9" stroke-width="4" stroke-linejoin="round"/>
    <path d="M25 34h14M25 41h10" stroke="#fff" stroke-width="3" stroke-linecap="round"/>
    <text x="82" y="43" fill="#171717" font-family="Arial, sans-serif" font-size="30" font-weight="700">Sora Files</text>
  </g>
  <text x="74" y="240" fill="#171717" font-family="Arial, sans-serif" font-size="66" font-weight="700" letter-spacing="-2">Free PDF &amp; image tools.</text>
  <text x="74" y="316" fill="#4f46e5" font-family="Arial, sans-serif" font-size="66" font-weight="700" letter-spacing="-2">Private by architecture.</text>
  <text x="78" y="372" fill="#525252" font-family="Arial, sans-serif" font-size="25">Compress · Resize · Convert · Merge · Split</text>
  <g transform="translate(74 446)" font-family="Arial, sans-serif" font-size="18" font-weight="700">
    <g><rect width="178" height="72" rx="14" fill="#fff" stroke="#e5e7eb"/><circle cx="36" cy="36" r="18" fill="#fff7ed"/><path d="M28 36h16M36 28v16" stroke="#ea580c" stroke-width="3"/><text x="66" y="43" fill="#171717">Compress PDF</text></g>
    <g transform="translate(194)"><rect width="178" height="72" rx="14" fill="#fff" stroke="#e5e7eb"/><circle cx="36" cy="36" r="18" fill="#f5f3ff"/><path d="M28 31h16M28 41h16" stroke="#7c3aed" stroke-width="3"/><text x="66" y="43" fill="#171717">Merge PDF</text></g>
    <g transform="translate(388)"><rect width="178" height="72" rx="14" fill="#fff" stroke="#e5e7eb"/><circle cx="36" cy="36" r="18" fill="#ecfeff"/><path d="M28 36h16M36 28v16" stroke="#0891b2" stroke-width="3"/><text x="66" y="43" fill="#171717">Resize Image</text></g>
    <g transform="translate(582)"><rect width="178" height="72" rx="14" fill="#fff" stroke="#e5e7eb"/><circle cx="36" cy="36" r="18" fill="#fdf2f8"/><path d="m28 40 7-8 9 10" fill="none" stroke="#db2777" stroke-width="3"/><text x="66" y="43" fill="#171717">Image to PDF</text></g>
  </g>
  <text x="1126" y="580" fill="#525252" text-anchor="end" font-family="Arial, sans-serif" font-size="20">sorafiles.com</text>
</svg>
